PathFileType	4	(X/Y/Z)	G:\Shared drives\HPL_Drive\Nord Sprinting Study\Kristen_Nord_test\Trimmed_Nord000004.trc
DataRate	CameraRate	NumFrames	NumMarkers	Units	OrigDataRate	OrigDataStartFrame	OrigNumFrames
200.00	200.00	      4	52	mm	200.00	627	      1002
Frame#	Time	C7			R_Shoulder			L_Shoulder			Sternum			R_humerus			R_elbow_med			R_elbow_lat			R_forearm			R_wrist_radius			R_wrist_ulna			L_humerus			L_elbow_med			L_elbow_lat			L_forearm			L_wrist_radius			L_wrist_ulna			r.ASIS			r.PSIS			r_IC			L.ASIS			L.PSIS			l_IC			r_thigh1			r_thigh2			r_thigh3			r_thigh4			r_thigh5			r_knee			r_mknee			r_shank_antsup			r_sh2			r_sh3			r_sh4			r_ankle			r_mankle			r_calc			r_5meta			r_toe			L_thigh1			L_thigh2			L_thigh3			L_thigh4			L_knee			L_mknee			L_shank_antsup			L_sh2			L_sh3			L_ankle			L_mankle			L_calc			L_5meta			L_toe			
		X1	Y1	Z1	X2	Y2	Z2	X3	Y3	Z3	X4	Y4	Z4	X5	Y5	Z5	X6	Y6	Z6	X7	Y7	Z7	X8	Y8	Z8	X9	Y9	Z9	X10	Y10	Z10	X11	Y11	Z11	X12	Y12	Z12	X13	Y13	Z13	X14	Y14	Z14	X15	Y15	Z15	X16	Y16	Z16	X17	Y17	Z17	X18	Y18	Z18	X19	Y19	Z19	X20	Y20	Z20	X21	Y21	Z21	X22	Y22	Z22	X23	Y23	Z23	X24	Y24	Z24	X25	Y25	Z25	X26	Y26	Z26	X27	Y27	Z27	X28	Y28	Z28	X29	Y29	Z29	X30	Y30	Z30	X31	Y31	Z31	X32	Y32	Z32	X33	Y33	Z33	X34	Y34	Z34	X35	Y35	Z35	X36	Y36	Z36	X37	Y37	Z37	X38	Y38	Z38	X39	Y39	Z39	X40	Y40	Z40	X41	Y41	Z41	X42	Y42	Z42	X43	Y43	Z43	X44	Y44	Z44	X45	Y45	Z45	X46	Y46	Z46	X47	Y47	Z47	X48	Y48	Z48	X49	Y49	Z49	X50	Y50	Z50	X51	Y51	Z51	X52	Y52	Z52	

627	3.130	1203.36523	827.72607	1132.47253	1323.34790	864.18890	1117.18140	1066.63123	871.92456	1116.70618	1200.90295	922.65753	1030.82593	1493.45471	803.10181	1110.15503	1624.36316	768.56360	1030.70203	1608.74744	728.80383	1098.46057	1601.93030	834.53583	1172.73315	1572.90845	946.69501	1203.97009	1612.52637	931.23260	1227.83411	874.24304	800.01617	1084.24780	774.91650	783.44788	982.51428	770.83276	739.09607	1047.81042	789.63489	860.24493	1132.59534	825.31653	946.42932	1165.67322	768.63757	946.03186	1172.86145	1327.16711	636.38562	659.31049	1276.03320	549.83228	828.58624	1357.70337	647.39758	767.83929	1092.46619	631.33948	656.84381	1159.21362	548.30170	821.48584	1066.20154	644.55841	750.36206	1384.76672	488.92850	474.86844	1377.91052	430.31372	375.66577	1388.96826	376.17099	374.01355	1394.05774	396.96399	530.86432	1373.91675	339.19849	428.52945	1373.22766	345.46402	302.79034	1250.56030	334.08636	321.03293	1392.34558	214.48885	312.89185	1372.54126	96.06326	327.00403	1393.25940	221.07542	389.55228	1375.14612	107.73115	408.39984	1354.32642	-69.26796	383.66364	1276.21155	-55.21048	354.61209	1296.77942	-90.17744	443.80115	1360.36255	-151.55052	289.92926	1328.29309	-125.42609	236.52176	1035.54785	494.35788	469.24023	1042.03308	423.29767	348.30731	1027.04529	393.08383	532.98779	1040.62671	326.04742	413.37485	1032.44128	327.78214	327.47211	1155.93457	324.81525	303.05139	1013.40015	215.95532	322.58127	1028.04736	229.34010	411.61380	1040.94006	107.94823	416.14810	1045.96167	-68.83684	396.49179	1110.96851	-55.36980	333.65277	1101.31506	-64.99213	436.22742	1031.82239	-181.30444	308.87909	1067.77795	-171.31187	245.76952	
628	3.135	1203.37683	828.96887	1131.64355	1323.39099	865.57306	1116.13330	1066.55383	873.04675	1115.92773	1200.80933	923.58356	1029.90833	1493.37537	804.25580	1109.28284	1623.27795	769.65973	1029.83435	1608.57129	729.88055	1097.74438	1601.79480	835.68781	1171.78601	1572.78101	947.93024	1202.86560	1612.36975	932.48993	1226.63159	874.23608	800.97870	1083.53503	774.89655	784.20325	981.79272	770.88635	739.92017	1047.28772	789.59076	861.20386	1131.92847	825.30206	947.45697	1164.72717	768.49872	947.25458	1171.84131	1327.06128	636.77350	658.98010	1275.97424	550.53772	828.33563	1357.75061	648.00824	767.44604	1092.40784	631.79999	656.45032	1158.91772	548.91736	821.03876	1066.15588	645.15564	749.86414	1384.46692	489.19000	474.77682	1377.66150	430.49026	375.57953	1388.79089	376.36804	373.99265	1393.95154	397.27557	530.79510	1373.89099	339.41656	428.53119	1375.12268	345.15744	304.16199	1250.49658	334.04504	321.03717	1391.33118	214.34222	313.03027	1372.54883	96.10276	327.05963	1393.23096	221.13780	389.59988	1375.10522	107.76908	408.46375	1354.35120	-69.27020	383.67947	1276.25500	-55.20278	354.61160	1296.73096	-90.13271	443.82819	1360.38025	-151.52847	289.93951	1328.32898	-125.38395	236.54846	1035.58545	494.64044	469.08096	1042.07739	423.44690	348.12714	1026.96106	393.39963	532.91284	1040.54688	326.26688	413.35437	1032.46533	327.83340	327.46207	1155.90723	324.75131	303.02106	1013.38123	216.15417	322.59595	1027.93262	229.44809	411.59891	1040.69312	107.99297	416.12939	1045.62036	-68.80253	396.55014	1110.67322	-55.33907	333.70178	1101.02173	-64.94905	436.31219	1031.50623	-181.23708	308.92294	1067.50256	-171.29877	245.82883	
629	3.140	1203.19836	830.09491	1130.97156	1322.43762	866.92780	1114.31055	1066.54272	874.18750	1115.13330	1200.65747	924.74756	1029.11499	1493.29016	805.30835	1108.46655	1624.05823	770.38031	1028.99866	1608.42163	730.87225	1096.92981	1601.73694	836.77820	1170.80554	1572.61621	949.05511	1201.66309	1612.28784	933.67615	1225.51709	874.21088	801.95380	1082.83813	774.87122	784.97308	981.05652	770.47321	740.87048	1045.86719	789.54468	862.20325	1131.14404	825.24152	948.41803	1163.85754	768.32776	948.61603	1170.96082	1326.87793	637.10339	658.63629	1275.95593	551.24194	828.04645	1357.65332	648.63965	767.07629	1092.30664	632.26373	656.01556	1159.05713	549.68738	821.00006	1066.08240	645.76520	749.44153	1384.08765	489.55847	474.62729	1377.46655	430.61945	375.43246	1388.71313	376.59943	373.94180	1393.86780	397.58905	530.75665	1373.90234	339.64127	428.54367	1373.19885	345.55411	302.81540	1250.47156	334.03400	321.03812	1391.95874	214.37006	312.96692	1372.57520	96.14292	327.10449	1393.17163	221.18198	389.66669	1375.10669	107.77525	408.51712	1354.35181	-69.21189	383.71503	1276.26587	-55.19027	354.70215	1296.77905	-90.11901	443.82309	1360.39758	-151.53503	289.98572	1328.38330	-125.35052	236.59970	1035.53442	494.93793	468.88589	1042.12878	423.54254	347.96030	1026.92261	393.70999	532.85632	1040.50244	326.48068	413.31363	1032.45496	327.92291	327.40198	1155.91321	324.85522	303.00781	1013.29510	216.23944	322.58728	1027.81750	229.54167	411.58911	1040.49524	108.04796	416.12250	1045.28052	-68.73146	396.56006	1110.41821	-55.31114	333.71671	1100.72913	-64.85954	436.29898	1031.82458	-181.15540	309.08118	1067.19800	-171.27527	245.87331	
630	3.145	1203.20056	831.39032	1130.02905	1322.43811	868.14331	1113.45251	1066.46619	875.44702	1114.29456	1200.59912	925.77264	1028.18347	1492.52600	806.52454	1107.59448	1623.92676	771.49841	1028.35974	1608.26514	731.84393	1096.15002	1601.67004	837.90369	1169.84998	1572.43970	950.20874	1200.61609	1612.21936	934.87018	1224.38635	874.11414	802.98096	1082.19543	774.78839	785.77173	980.54303	770.47150	741.67773	1045.31250	789.56116	863.15222	1130.35107	825.26373	949.48053	1162.93945	768.50311	949.27692	1170.18274	1326.87500	637.54486	658.22668	1275.83130	551.96490	827.83112	1357.59814	649.23389	766.65173	1092.22253	632.71875	655.62354	1158.94885	550.39911	820.67224	1066.19116	646.46338	748.94495	1383.79578	489.81995	474.52054	1377.33508	430.73865	375.37466	1387.68408	377.26462	373.28247	1393.78821	397.99564	530.67688	1373.90759	339.86880	428.52823	1375.12988	345.27060	304.16064	1250.47522	334.11649	320.99374	1391.33813	214.44878	313.17056	1372.57080	96.21309	327.15189	1393.12305	221.26572	389.73080	1374.99414	107.87106	408.61365	1354.38403	-69.17174	383.71906	1276.30408	-55.12659	354.68024	1296.81824	-90.06482	443.78711	1360.49487	-151.47751	289.98529	1328.48474	-125.34641	236.56900	1035.53162	495.19189	468.57993	1042.14905	423.64279	347.86563	1026.81128	394.07434	532.71417	1040.41748	326.68295	413.28064	1032.45984	328.00809	327.35086	1155.90112	324.87070	303.07379	1013.14349	216.25824	322.38104	1027.72290	229.64290	411.56458	1040.28650	108.14345	416.14334	1044.99182	-68.67477	396.58588	1110.16467	-55.28946	333.77289	1100.36963	-64.82718	436.33630	1031.50586	-181.07805	309.07013	1065.25610	-170.82768	246.81549	
